<?xml version="1.0" encoding="utf-8"?>
<!-- Generator: Adobe Illustrator 19.1.0, SVG Export Plug-In . SVG Version: 6.00 Build 0)  -->
<svg version="1.1" id="Layer_1" xmlns="http://www.w3.org/2000/svg" xmlns:xlink="http://www.w3.org/1999/xlink" x="0px" y="0px"
	 viewBox="0 0 424 67.5" style="enable-background:new 0 0 424 67.5;" xml:space="preserve">
<style type="text/css">
	.st0{fill:none;}
</style>
<path d="M33.4,28.8c2.2,1,3.8,2.2,4.7,3.7c1,1.5,1.5,3,1.5,4.7c0,2.4-0.6,4.4-1.9,6.1c-1.3,1.7-3.1,3-5.5,3.8
	c-2.4,0.9-5.3,1.3-8.6,1.3c-0.8,0-2.3,0-4.3-0.1c-2-0.1-4-0.1-6.1-0.1c-4,0-7,0.1-8.9,0.2v-1.2c1.3-0.1,2.2-0.2,2.8-0.5
	c0.6-0.2,1-0.7,1.2-1.4c0.2-0.7,0.3-1.7,0.3-3.2V13.5c0-1.5-0.1-2.5-0.3-3.2C8.1,9.7,7.7,9.2,7.1,9C6.5,8.7,5.6,8.6,4.3,8.5V7.4
	c1.9,0.1,4.9,0.2,8.8,0.2c1.5,0,3.3,0,5.2-0.1c1.9,0,3.2-0.1,3.9-0.1c3.1,0,5.7,0.4,7.9,1.1c2.1,0.8,3.8,1.8,4.8,3.2
	c1.1,1.4,1.6,3,1.6,4.8c0,1.4-0.4,2.8-1.2,4.2c-0.8,1.4-2.1,2.6-3.9,3.7c-1.7,1.1-3.9,1.8-6.5,2.3v0.1
	C28.4,27.1,31.2,27.7,33.4,28.8z M25.6,24c1-1.7,1.5-4,1.5-6.9c0-2.9-0.5-5.1-1.4-6.5c-0.9-1.4-2.4-2.1-4.3-2.1
	c-1,0-1.8,0.1-2.3,0.4c-0.5,0.3-0.8,0.8-1,1.4c-0.2,0.7-0.3,1.7-0.3,3.1v13.1h2.5C22.9,26.6,24.6,25.8,25.6,24z M18.2,45.4
	c0.2,0.7,0.6,1.1,1.1,1.4c0.5,0.2,1.4,0.4,2.6,0.4c5.4,0,8.1-3.4,8.1-10.2c0-3-0.8-5.4-2.3-6.9c-1.5-1.6-4-2.4-7.3-2.4h-2.4v14.7
	C17.9,43.7,18,44.7,18.2,45.4z"/>
<path d="M49.3,33.2c0,2.6,0.4,4.7,1.1,6.4c0.7,1.7,1.6,2.9,2.8,3.7c1.1,0.8,2.4,1.2,3.7,1.2c3.2,0,5.8-1.5,7.7-4.6l1,0.3
	c-0.5,1.6-1.3,3.1-2.3,4.4c-1,1.4-2.3,2.5-3.9,3.3c-1.6,0.9-3.4,1.3-5.4,1.3c-2.7,0-5-0.6-7-1.7c-2-1.1-3.6-2.9-4.7-5.2
	c-1.1-2.3-1.7-5.2-1.7-8.6c0-3.5,0.6-6.5,1.8-8.9c1.2-2.4,2.9-4.2,5-5.4c2.1-1.2,4.6-1.8,7.4-1.8c7.3,0,10.9,4.3,10.9,12.9H49.4
	C49.3,31.1,49.3,32,49.3,33.2z M57.4,21.9c-0.7-2-1.7-3-3-3c-1.4,0-2.5,0.9-3.4,2.6c-0.9,1.7-1.5,4.4-1.7,8h9.1
	C58.4,26.4,58.1,23.9,57.4,21.9z"/>
<path d="M81,20.2c-0.8-0.9-2-1.4-3.6-1.4c-0.8,0-1.5,0.1-2.3,0.4c-0.8,0.2-1.4,0.6-1.9,1.1c1.1,0.4,1.9,0.9,2.5,1.7
	c0.6,0.8,0.9,1.7,0.9,2.9c0,0.8-0.2,1.5-0.6,2.1c-0.4,0.6-0.9,1.1-1.7,1.5c-0.7,0.4-1.5,0.6-2.5,0.6c-1.2,0-2.2-0.4-3-1.3
	c-0.7-0.8-1.1-1.9-1.1-3.2c0-2,1.1-3.6,3.2-4.9c2.4-1.3,5.3-2,8.8-2c4,0,6.8,0.9,8.5,2.6c0.8,0.8,1.4,1.8,1.6,3
	c0.3,1.2,0.4,2.9,0.4,5.1v15.8c0,0.9,0.1,1.6,0.3,2c0.2,0.4,0.5,0.6,0.9,0.6c0.6,0,1.3-0.3,2.2-1l0.6,1c-0.9,0.7-1.9,1.3-2.9,1.6
	c-1,0.3-2.3,0.5-3.7,0.5c-2,0-3.4-0.4-4.3-1.3c-0.9-0.9-1.3-2-1.3-3.4c-0.9,1.6-2.2,2.7-3.7,3.5c-1.5,0.8-3.2,1.2-4.9,1.2
	c-2.2,0-4-0.6-5.3-1.7c-1.3-1.2-2-2.8-2-4.9c0-2,0.7-3.7,2-5c1.3-1.3,3.4-2.5,6.1-3.5c0.3-0.1,1.3-0.5,2.9-1.1
	c1.7-0.6,2.9-1.3,3.6-1.9c0.7-0.7,1.1-1.4,1.1-2.2V24C82.2,22.4,81.8,21.1,81,20.2z M81,32.1c-0.6,0.4-1.4,1-2.4,1.6
	c-1.2,0.8-2.2,1.8-2.9,2.9c-0.7,1.1-1,2.4-1,4c0,1.5,0.3,2.6,1,3.4c0.7,0.7,1.5,1.1,2.6,1.1c1.5,0,2.8-0.8,3.9-2.4V30.8
	C81.9,31.3,81.5,31.7,81,32.1z"/>
<path d="M123,46c0.6,0.8,1.5,1.2,2.9,1.2v1.2c-1.2-0.1-2.4-0.2-3.6-0.2c-3.4,0-6.2,0.3-8.5,0.8v-5.2c-1.8,3.6-4.9,5.4-9.4,5.4
	c-2.9,0-5-0.8-6.3-2.3c-0.6-0.7-1.1-1.7-1.4-2.9c-0.3-1.2-0.4-2.7-0.4-4.7V24.8c0-1.8-0.3-3.1-0.8-3.9c-0.6-0.8-1.5-1.2-2.9-1.2
	v-1.2c1.2,0.1,2.4,0.2,3.6,0.2c3.4,0,6.2-0.3,8.5-0.8v24c0,1.6,0.2,2.8,0.7,3.6c0.5,0.8,1.4,1.2,2.7,1.2c1,0,2-0.3,2.8-0.9
	c0.9-0.6,1.5-1.4,2.1-2.4c0.5-1,0.8-2.2,0.8-3.4V24.8c0-1.8-0.3-3.1-0.8-3.9c-0.6-0.8-1.5-1.2-2.9-1.2v-1.2c1.2,0.1,2.4,0.2,3.6,0.2
	c3.4,0,6.2-0.3,8.5-0.8v24.3C122.2,43.9,122.5,45.2,123,46z"/>
<path d="M205.7,46c0.6,0.8,1.5,1.2,2.9,1.2v1.2c-1.2-0.1-2.4-0.2-3.6-0.2c-3.4,0-6.2,0.3-8.5,0.8v-5.2c-1.8,3.6-4.9,5.4-9.4,5.4
	c-2.9,0-5-0.8-6.3-2.3c-0.6-0.7-1.1-1.7-1.4-2.9c-0.3-1.2-0.4-2.7-0.4-4.7V24.8c0-1.8-0.3-3.1-0.8-3.9c-0.6-0.8-1.5-1.2-2.9-1.2
	v-1.2c1.2,0.1,2.4,0.2,3.6,0.2c3.4,0,6.2-0.3,8.5-0.8v24c0,1.6,0.2,2.8,0.7,3.6c0.5,0.8,1.4,1.2,2.7,1.2c1,0,2-0.3,2.8-0.9
	c0.9-0.6,1.5-1.4,2.1-2.4c0.5-1,0.8-2.2,0.8-3.4V24.8c0-1.8-0.3-3.1-0.8-3.9c-0.6-0.8-1.5-1.2-2.9-1.2v-1.2c1.2,0.1,2.4,0.2,3.6,0.2
	c3.4,0,6.2-0.3,8.5-0.8v24.3C204.9,43.9,205.2,45.2,205.7,46z"/>
<path d="M220.4,45.6c0.2,0.6,0.6,1,1.2,1.3c0.5,0.2,1.3,0.4,2.2,0.4v1.2c-4-0.2-6.6-0.2-7.8-0.2c-1.3,0-4,0.1-8,0.2v-1.2
	c0.9,0,1.7-0.1,2.2-0.4c0.5-0.2,0.9-0.7,1.2-1.3c0.2-0.6,0.4-1.4,0.4-2.5V10c0-1.8-0.3-3.1-0.8-3.9c-0.6-0.8-1.5-1.2-2.9-1.2V3.6
	c1.2,0.1,2.4,0.2,3.6,0.2c3.4,0,6.2-0.3,8.5-0.8v40.1C220.1,44.1,220.2,45,220.4,45.6z"/>
<path d="M274.3,9c-0.6,0.2-1,0.7-1.2,1.4c-0.2,0.7-0.3,1.7-0.3,3.2v28.8c0,1.5,0.1,2.5,0.3,3.2c0.2,0.7,0.6,1.1,1.2,1.4
	c0.6,0.2,1.5,0.4,2.8,0.5v1.2c-1.9-0.1-4.9-0.2-8.8-0.2c-3.9,0-7,0.1-9.1,0.2v-1.2c1.3-0.1,2.2-0.2,2.8-0.5c0.6-0.2,1-0.7,1.2-1.4
	c0.2-0.7,0.3-1.7,0.3-3.2V28.3h-15.4v13.9c0,1.5,0.1,2.5,0.3,3.2c0.2,0.7,0.6,1.1,1.2,1.4c0.6,0.2,1.5,0.4,2.8,0.5v1.2
	c-2.1-0.1-5-0.2-8.8-0.2c-4.1,0-7.2,0.1-9.2,0.2v-1.2c1.3-0.1,2.2-0.2,2.8-0.5c0.6-0.2,1-0.7,1.2-1.4c0.2-0.7,0.3-1.7,0.3-3.2V13.5
	c0-1.5-0.1-2.5-0.3-3.2c-0.2-0.7-0.6-1.1-1.2-1.4c-0.6-0.2-1.5-0.4-2.8-0.5V7.4c1.9,0.1,5,0.2,9.2,0.2c3.8,0,6.7-0.1,8.8-0.2v1.2
	c-1.3,0.1-2.2,0.2-2.8,0.5c-0.6,0.2-1,0.7-1.2,1.4c-0.2,0.7-0.3,1.7-0.3,3.2v13.7h15.4V13.5c0-1.5-0.1-2.5-0.3-3.2
	C263,9.7,262.6,9.2,262,9c-0.6-0.2-1.5-0.4-2.8-0.5V7.4c2.2,0.1,5.2,0.2,9.1,0.2c3.9,0,6.9-0.1,8.8-0.2v1.2
	C275.8,8.6,274.9,8.7,274.3,9z"/>
<path d="M301.8,21.4c2.5,2.5,3.8,6.5,3.8,12c0,5.5-1.3,9.5-3.8,12c-2.5,2.5-6,3.8-10.4,3.8c-4.4,0-7.9-1.3-10.4-3.8
	c-2.5-2.5-3.8-6.5-3.8-12s1.3-9.5,3.8-12c2.5-2.5,6-3.8,10.4-3.8C295.8,17.6,299.3,18.9,301.8,21.4z M287.4,22.4
	c-1,2.4-1.5,6.1-1.5,11.1c0,4.9,0.5,8.6,1.5,11c1,2.4,2.3,3.6,4,3.6c1.7,0,3-1.2,4-3.6c1-2.4,1.5-6.1,1.5-11c0-5-0.5-8.7-1.5-11.1
	c-1-2.4-2.3-3.6-4-3.6C289.7,18.8,288.4,20,287.4,22.4z"/>
<path d="M353.3,45.6c0.2,0.6,0.6,1,1.2,1.3c0.5,0.2,1.3,0.4,2.2,0.4v1.2c-3.9-0.2-6.4-0.2-7.7-0.2c-1.1,0-3.5,0.1-7.2,0.2v-1.2
	c0.7,0,1.2-0.1,1.6-0.4c0.4-0.2,0.7-0.7,0.9-1.3c0.2-0.6,0.3-1.4,0.3-2.5V25c0-1.6-0.2-2.8-0.7-3.6c-0.5-0.8-1.4-1.2-2.8-1.2
	c-0.9,0-1.8,0.3-2.6,0.8c-0.8,0.5-1.5,1.3-2,2.2c-0.5,0.9-0.9,2-1,3.2v1v15.6c0,1.1,0.1,1.9,0.3,2.5c0.2,0.6,0.6,1,1,1.3
	c0.5,0.2,1.1,0.4,2,0.4v1.2c-3.7-0.2-6.1-0.2-7.3-0.2c-1.1,0-3.5,0.1-7.2,0.2v-1.2c0.7,0,1.2-0.1,1.6-0.4c0.4-0.2,0.7-0.7,0.9-1.3
	c0.2-0.6,0.3-1.4,0.3-2.5V25c0-1.6-0.2-2.8-0.6-3.6c-0.4-0.8-1.2-1.2-2.5-1.2c-1,0-2,0.3-2.8,0.9c-0.9,0.6-1.5,1.4-2.1,2.4
	c-0.5,1-0.8,2.2-0.8,3.4v16.2c0,1.1,0.1,1.9,0.3,2.5c0.2,0.6,0.5,1,0.9,1.3c0.4,0.2,0.9,0.4,1.6,0.4v1.2c-3.4-0.2-5.7-0.2-6.8-0.2
	c-1.2,0-3.9,0.1-8,0.2v-1.2c0.9,0,1.7-0.1,2.2-0.4c0.5-0.2,0.9-0.7,1.2-1.3c0.2-0.6,0.4-1.4,0.4-2.5V24.8c0-1.8-0.3-3.1-0.8-3.9
	c-0.5-0.8-1.5-1.2-2.9-1.2v-1.2c1.2,0.1,2.4,0.2,3.6,0.2c3.4,0,6.2-0.3,8.5-0.8V23c1.7-3.6,4.7-5.4,9-5.4c2.9,0,5.1,0.7,6.4,2.2
	c0.7,0.8,1.2,2,1.5,3.5c1-2.1,2.3-3.6,3.9-4.4c1.6-0.9,3.5-1.3,5.7-1.3c2.9,0,5.1,0.7,6.4,2.2c0.6,0.7,1.1,1.7,1.3,2.9
	c0.3,1.2,0.4,2.7,0.4,4.7v15.6C353,44.1,353.1,45,353.3,45.6z"/>
<path d="M365.4,33.2c0,2.6,0.4,4.7,1.1,6.4c0.7,1.7,1.6,2.9,2.8,3.7c1.1,0.8,2.4,1.2,3.7,1.2c3.2,0,5.8-1.5,7.7-4.6l1,0.3
	c-0.5,1.6-1.3,3.1-2.3,4.4c-1,1.4-2.3,2.5-3.9,3.3c-1.6,0.9-3.4,1.3-5.4,1.3c-2.7,0-5-0.6-7-1.7c-2-1.1-3.6-2.9-4.7-5.2
	c-1.1-2.3-1.7-5.2-1.7-8.6c0-3.5,0.6-6.5,1.8-8.9c1.2-2.4,2.9-4.2,5-5.4c2.1-1.2,4.6-1.8,7.4-1.8c7.3,0,10.9,4.3,10.9,12.9h-16.3
	C365.4,31.1,365.4,32,365.4,33.2z M373.6,21.9c-0.7-2-1.7-3-3-3c-1.4,0-2.5,0.9-3.4,2.6c-0.9,1.7-1.5,4.4-1.7,8h9.1
	C374.5,26.4,374.2,23.9,373.6,21.9z"/>
<path d="M387.4,45.1c1.3,1.9,3,2.8,5.3,2.8c1.1,0,2.1-0.3,2.9-1c0.8-0.7,1.2-1.7,1.2-3.1c0-1.1-0.2-2-0.7-2.9
	c-0.5-0.9-1.1-1.6-1.8-2.3c-0.7-0.7-1.8-1.6-3.3-2.7c-1.8-1.5-3.1-2.6-4-3.4c-0.9-0.8-1.7-1.8-2.3-3c-0.6-1.1-1-2.4-1-3.9
	c0-1.7,0.5-3.1,1.4-4.3c0.9-1.2,2.1-2.1,3.7-2.7c1.5-0.6,3.2-0.9,5-0.9c1.5,0,2.8,0.2,4.1,0.5c1.2,0.4,2.2,0.8,2.9,1.2
	c0.4,0.3,0.7,0.4,1,0.4c0.7,0,1.2-0.7,1.4-2.1h1.3c-0.2,1.9-0.2,5.3-0.2,10.2h-1.3c-0.3-2.5-1.1-4.7-2.3-6.4
	c-1.2-1.7-2.9-2.6-5.1-2.6c-1.2,0-2.1,0.3-2.8,1c-0.7,0.7-1.1,1.6-1.1,2.7c0,1.3,0.4,2.4,1.3,3.4c0.9,0.9,1.9,1.9,3.1,2.7
	c1.2,0.9,2.1,1.5,2.7,2c1.6,1.2,2.8,2.2,3.8,3.1c0.9,0.9,1.7,1.9,2.3,3c0.6,1.1,0.9,2.4,0.9,3.9c0,1.7-0.5,3.2-1.5,4.5
	c-1,1.3-2.3,2.3-4,3c-1.7,0.7-3.5,1.1-5.5,1.1c-2.1,0-3.9-0.4-5.4-1.2c-1.2-0.6-2.1-1-2.7-1.2c-0.1,0-0.2-0.1-0.3-0.1
	c-0.6,0-1.1,0.7-1.4,2.1h-1.3c0.2-2.2,0.2-6.1,0.2-11.6h1.3C385.3,40.6,386.2,43.2,387.4,45.1z"/>
<circle cx="150.9" cy="9.4" r="4.7"/>
<g>
	<path class="st0" d="M156,20.9c-0.5,0.8-0.8,2.1-0.8,3.9v18.3c0,0.3,0,0.5,0,0.8c0,0.7,0.2,1.3,0.3,1.7c0.2,0.6,0.6,1,1.2,1.3
		c0.5,0.2,1.2,0.3,2,0.4c0.8,0,1.5-0.1,2-0.4c0.5-0.2,0.9-0.7,1.2-1.3c0.2-0.6,0.4-1.4,0.4-2.5V19.6h-3.3
		C157.5,19.6,156.5,20.1,156,20.9z"/>
	<path d="M181.4,6.8c-0.4-0.8-0.8-1.4-1.4-1.8c-1.7-1.3-3.8-1.9-6.2-1.9c-1.6,0-3.1,0.3-4.5,0.8c-1.4,0.5-2.6,1.2-3.4,2.1
		c-0.9,0.9-1.6,1.9-2.2,2.9c-0.5,1.1-0.9,2.4-1.1,3.9c-0.2,1.5-0.4,3.4-0.4,5.7h-5.6c-1.6,1-3.6,1.6-5.7,1.6c-2,0-3.9-0.6-5.6-1.6
		c-0.4,0-1.1-0.1-1.1-0.1h-6.9V8.9c-2.4,1.2-5.2,1.9-8.4,1.9v7.7h-4.9v1.2h4.9v19.6c0,2.2,0.1,3.8,0.4,5.1c0.3,1.2,0.8,2.2,1.7,3
		c1.3,1.3,3.3,2,5.8,2c3.8,0,6.5-2,7.9-6l-1-0.5c-1,2.3-2.3,3.5-3.9,3.5c-0.9,0-1.5-0.2-1.9-0.7c-0.4-0.5-0.6-1.3-0.6-2.5V19.6h5.7
		c1.4,0,2.3,0.4,2.9,1.2c0.5,0.8,0.8,2.1,0.8,3.9v18.3c0,0.3,0,0.5,0,0.8c0,0.7-0.2,1.3-0.3,1.7c-0.2,0.6-0.6,1-1.2,1.3
		c-0.5,0.2-1.3,0.4-2.2,0.4v1.2c4-0.1,6.6-0.2,7.9-0.2c1.2,0,3.7,0.1,7.5,0.2v0c0.1,0,0.1,0,0.2,0c0.1,0,0.1,0,0.2,0v0
		c1.4-0.1,2.5-0.1,3.6-0.1v9c0,2.3-0.1,4-0.2,5.1c-0.2,1.1-0.4,2-0.9,2.5c-0.6,1-1.7,1.5-3.1,1.5c-0.5,0-1-0.1-1.3-0.2
		c-0.4-0.2-0.6-0.4-0.7-0.6c1.1-0.3,1.9-0.9,2.5-1.6c0.6-0.8,0.9-1.7,0.9-2.7c0-1.3-0.4-2.3-1.2-3c-0.8-0.7-1.9-1.1-3.2-1.1
		c-0.8,0-1.5,0.2-2.1,0.6c-0.6,0.4-1.1,0.9-1.5,1.5c-0.3,0.6-0.5,1.3-0.5,2c0,0.9,0.2,1.8,0.6,2.5c0.4,0.8,0.8,1.4,1.4,1.8
		c1.7,1.3,3.8,1.9,6.2,1.9c1.6,0,3.1-0.3,4.5-0.8c1.4-0.5,2.6-1.2,3.4-2.1c0.9-0.9,1.6-1.9,2.2-2.9c0.5-1.1,0.9-2.4,1.1-3.9
		c0.2-1.5,0.4-3.4,0.4-5.7l-0.3-32.4h6.2v-1.2h-6.2v-5.3c0-2.3,0.1-4,0.2-5.1c0.2-1.1,0.4-2,0.9-2.5c0.6-1,1.7-1.5,3.1-1.5
		c0.5,0,1,0.1,1.3,0.2c0.4,0.2,0.6,0.4,0.7,0.6c-1.1,0.3-1.9,0.9-2.5,1.6c-0.6,0.8-0.9,1.7-0.9,2.7c0,1.3,0.4,2.3,1.2,3
		c0.8,0.7,1.9,1.1,3.2,1.1c0.8,0,1.5-0.2,2.1-0.6c0.6-0.4,1.1-0.9,1.5-1.5c0.3-0.6,0.5-1.3,0.5-2C182,8.4,181.8,7.6,181.4,6.8z
		 M162.2,43.1c0,1.1-0.1,1.9-0.4,2.5c-0.2,0.6-0.6,1-1.2,1.3c-0.5,0.2-1.2,0.3-2,0.4c-0.8,0-1.5-0.1-2-0.4c-0.5-0.2-0.9-0.7-1.2-1.3
		c-0.2-0.4-0.3-1-0.3-1.7c0-0.2,0-0.5,0-0.8V24.8c0-1.8,0.3-3.1,0.8-3.9c0.5-0.8,1.5-1.2,2.9-1.2h3.3V43.1z"/>
</g>
<circle cx="415" cy="44.6" r="4.7"/>
</svg>
